<?xml version="1.0" encoding="UTF-8" standalone="no"?>
<!DOCTYPE svg PUBLIC "-//W3C//DTD SVG 1.1//EN" "http://www.w3.org/Graphics/SVG/1.1/DTD/svg11.dtd">
<svg width="100%" height="100%" viewBox="0 0 2481 3508" version="1.1" xmlns="http://www.w3.org/2000/svg" xmlns:xlink="http://www.w3.org/1999/xlink" xml:space="preserve" xmlns:serif="http://www.serif.com/" style="fill-rule:evenodd;clip-rule:evenodd;stroke-linejoin:round;stroke-miterlimit:1.41421;">
    <g id="Capa-1" serif:id="Capa 1" transform="matrix(4.16667,0,0,4.16667,0,0)">
        <g>
            <g transform="matrix(1,0,0,1,398.081,213.009)">
                <path d="M0,54.897L-33.961,54.897L-33.961,49.043L-8.983,7.18C-12.146,7.29 -17.375,7.401 -22.909,7.401L-33.467,7.401L-33.467,0.003L-0.496,0.003L-0.496,5.743L-25.273,47.496C-22.311,47.387 -15.697,47.275 -11.06,47.275L0,47.275L0,54.897ZM-50.741,27.062C-50.741,13.807 -55.676,5.855 -65.449,5.855C-73.147,5.855 -80.456,12.372 -80.456,27.062C-80.456,41.09 -75.026,48.822 -65.449,48.822C-57.749,48.822 -50.741,42.193 -50.741,27.062M-43.042,26.508C-43.042,42.859 -52.02,55.891 -66.537,55.891C-79.662,55.891 -88.155,46.942 -88.155,27.724C-88.155,12.04 -79.466,-0.994 -64.755,-0.994C-52.817,-0.994 -43.042,6.409 -43.042,26.508M-93.238,0.003L-112.191,54.897L-119.894,54.897L-138.455,0.003L-130.063,0.003L-118.612,35.787C-117.624,39.213 -116.735,42.305 -115.848,45.507C-114.958,42.526 -114.067,39.213 -113.081,36.23L-101.335,0.003L-93.238,0.003Z" style="fill:rgb(145,186,211);fill-rule:nonzero;"/>
            </g>
            <g transform="matrix(1,0,0,1,190.222,248.078)">
                <path d="M0,-15.682C0.197,-24.189 -4.341,-29.933 -11.845,-29.933C-18.757,-29.933 -23.692,-24.297 -24.879,-15.682L0,-15.682ZM7.7,-13.582C7.7,-12.591 7.7,-11.154 7.504,-9.499L-25.273,-9.499C-25.765,6.96 -19.943,13.81 -8.981,13.81C-3.848,13.81 1.579,12.374 5.231,10.275L5.923,17.346C1.383,19.441 -4.148,20.657 -10.268,20.657C-25.072,20.657 -32.97,11.71 -32.97,-7.509C-32.97,-23.967 -25.072,-36.227 -11.451,-36.227C2.075,-36.227 7.7,-25.734 7.7,-13.582M60.499,19.664L53.097,19.664L53.097,-15.906C53.097,-24.519 51.023,-29.491 43.912,-29.491C35.128,-29.491 28.909,-19.77 28.909,-6.734L28.909,19.664L21.506,19.664L21.506,-35.232L28.809,-35.232C28.809,-31.698 28.516,-26.396 28.022,-23.083C30.979,-30.925 37.201,-36.339 45.792,-36.339C57.045,-36.339 60.499,-28.383 60.499,-18.666L60.499,19.664Z" style="fill:rgb(145,186,211);fill-rule:nonzero;"/>
            </g>
            <g transform="matrix(1,0,0,1,570.648,239.73)">
                <path d="M0,2.649L0,1.768C-18.462,1.768 -22.406,8.284 -22.406,13.583C-22.406,18.556 -19.253,21.759 -14.412,21.759C-5.726,21.759 0,12.15 0,2.649M7.698,27.504L0.4,27.504C0.4,23.307 0.4,19.108 0.887,15.907C-1.677,22.863 -7.994,28.498 -16.386,28.498C-24.187,28.498 -29.812,23.859 -29.812,15.133C-29.812,3.643 -19.149,-4.308 0,-4.308L0,-8.835C0,-17.122 -2.667,-21.761 -11.154,-21.761C-15.891,-21.761 -21.817,-20.102 -26.16,-17.009L-26.85,-24.301C-22.209,-26.621 -16.482,-28.387 -9.869,-28.387C3.656,-28.387 7.506,-20.877 7.506,-10.493L7.506,11.046C7.506,16.457 7.506,22.643 7.698,27.504M-43.598,34.463C-43.598,49.043 -47.447,55.778 -59.787,55.778C-61.861,55.778 -64.528,55.449 -66.406,54.787L-65.711,47.496C-63.833,48.269 -61.565,48.821 -59.394,48.821C-52.782,48.821 -51,45.728 -51,35.014L-51,-27.392L-43.598,-27.392L-43.598,34.463ZM-42.217,-40.746C-42.217,-37.544 -44.485,-35.113 -47.352,-35.113C-50.113,-35.113 -52.382,-37.544 -52.382,-40.746C-52.382,-43.837 -50.113,-46.38 -47.352,-46.38C-44.485,-46.38 -42.217,-43.837 -42.217,-40.746M-77.308,2.649L-77.308,1.768C-95.771,1.768 -99.722,8.284 -99.722,13.583C-99.722,18.556 -96.559,21.759 -91.72,21.759C-83.031,21.759 -77.308,12.15 -77.308,2.649M-69.607,27.504L-76.915,27.504C-76.915,23.307 -76.915,19.108 -76.421,15.907C-78.984,22.863 -85.308,28.498 -93.693,28.498C-101.494,28.498 -107.124,23.859 -107.124,15.133C-107.124,3.643 -96.464,-4.308 -77.308,-4.308L-77.308,-8.835C-77.308,-17.122 -79.975,-21.761 -88.462,-21.761C-93.206,-21.761 -99.121,-20.102 -103.466,-17.009L-104.162,-24.301C-99.521,-26.621 -93.797,-28.387 -87.184,-28.387C-73.656,-28.387 -69.808,-20.877 -69.808,-10.493L-69.808,11.046C-69.808,16.457 -69.808,22.643 -69.607,27.504M-124.356,-1.767C-124.356,-14.139 -128.006,-21.539 -136.103,-21.539C-145.974,-21.539 -150.718,-8.726 -150.718,0.995L-150.718,20.213C-147.849,21.206 -144.887,21.649 -141.143,21.649C-130.969,21.649 -124.356,14.799 -124.356,-1.767M-116.562,-2.43C-116.562,17.122 -126.433,28.166 -141.83,28.166C-148.447,28.166 -153.08,27.615 -158.118,26.065L-158.118,-53.129L-150.718,-53.129L-150.718,-25.294C-150.718,-22.2 -151.012,-18.005 -151.603,-15.242C-148.641,-23.415 -142.322,-28.387 -134.626,-28.387C-123.071,-28.387 -116.562,-19.44 -116.562,-2.43" style="fill:rgb(145,186,211);fill-rule:nonzero;"/>
            </g>
            <g transform="matrix(1,0,0,1,45.3457,139.892)">
                <path d="M0,31.528L50.923,16.753L0.491,0L0,31.528Z" style="fill:rgb(228,33,19);"/>
            </g>
            <g transform="matrix(1,0,0,1,124.741,172.142)">
                <path d="M0,-30.394L0.365,-30.049C0.258,-29.878 0.267,-29.773 0.391,-29.627C0.291,-29.458 0.057,-29.414 -0.098,-29.409C-0.384,-28.68 0.385,-28.793 0.331,-27.95C0.413,-27.881 0.585,-28.11 0.841,-27.87C1.096,-27.63 0.831,-27.657 0.814,-27.504C1.026,-27.64 1.096,-27.965 1.421,-28.1C2.347,-25.616 4.236,-23.297 4.745,-20.417C4.468,-18.933 4.832,-16.544 4.522,-14.766C4.364,-13.915 3.38,-13.962 3.467,-12.931C3.682,-13.068 3.958,-13.416 4.229,-13.381L2.742,-11.397C2.725,-11.34 1.841,-10.856 1.625,-10.57C1.411,-10.284 1.352,-10.036 1.465,-9.66C0.794,-9.619 -0.399,-9.88 -1.598,-9.124C-1.86,-9.56 -1.792,-10.076 -2.048,-10.316C-2.303,-10.556 -2.152,-10.443 -2.412,-10.486C-0.753,-11.033 0.788,-12.938 0.821,-12.981C3.33,-16.326 1.57,-23.094 -0.961,-25.469C-3.17,-27.543 -8.668,-25.791 -10.98,-25.552C-11.978,-25.441 -12.989,-23.827 -13.438,-23.227L-15.648,-20.282C-15.862,-19.997 -15.852,-19.349 -15.81,-18.696L-16.118,-18.286C-16.27,-18.407 -16.323,-18.487 -16.471,-18.487C-16.537,-17.808 -16.569,-10.894 -15.395,-9.79L-13.581,-8.088C-12.585,-7.152 -10.015,-6.941 -9.684,-5.597C-7.605,-5.622 -4.762,-2.807 -2.537,-5.68C-2.386,-5.568 -2.198,-5.586 -2.076,-5.411C-2.321,-5.341 -2.432,-5.192 -2.445,-5.038C-0.43,-5.779 1.391,-7.556 3.129,-9.519L4.026,-8.678L2.633,-6.821C2.426,-6.529 2.255,-6.764 2.04,-6.478C1.869,-6.249 1.356,-5.85 2.055,-5.87C1.055,-4.644 -0.653,-2.577 -2.15,-2.517C-2.116,-2.363 -1.917,-2.194 -1.825,-1.922C-1.491,-1.969 -1.13,-2.216 -0.862,-2.182L-1.26,-1.652C-2.945,-1.187 -4.891,0.034 -6.745,-0.353C-6.889,-0.147 -6.943,0.146 -7.026,0.405C-6.52,0.324 -5.925,0.479 -5.388,0.613C-7.694,1.014 -9.024,1.751 -11.323,2.411C-11.369,2.146 -11.094,1.99 -11.021,1.707L-11.279,1.465C-11.513,1.594 -12.009,1.573 -12.223,1.859C-12.437,2.145 -12.302,2.078 -12.243,2.231C-12.489,2.095 -12.727,2.067 -12.982,1.826C-13.238,1.587 -12.812,1.598 -13.067,1.358C-13.323,1.118 -13.493,1.348 -13.718,1.121C-13.648,0.781 -13.594,0.938 -13.677,0.201C-13.819,0.236 -13.814,0.266 -14.031,0.552C-14.181,0.752 -14.225,0.828 -14.17,1.428C-14.347,1.325 -14.574,1.475 -14.826,1.453C-14.561,1.027 -14.227,0.585 -13.987,0.096C-14.792,-0.125 -15.262,0.864 -16.021,0.716C-15.926,0.524 -15.78,0.595 -15.615,0.585L-15.389,0.28C-15.411,0.105 -15.283,0.251 -15.539,0.011C-16.05,-0.469 -16.327,0.048 -16.65,-0.45C-16.806,-0.426 -16.718,-0.508 -16.932,-0.223C-17.146,0.063 -17.063,0.339 -16.849,0.828C-17.526,0.576 -17.148,-0.207 -17.068,-0.646C-18.384,-0.776 -19.591,-1.664 -20.858,-1.868C-20.858,-1.868 -21,-1.998 -20.786,-2.284C-20.572,-2.569 -20.552,-2.329 -20.41,-2.32C-20.458,-2.685 -20.764,-2.989 -20.692,-3.463C-20.969,-3.409 -21.34,-3.288 -21.545,-2.929C-21.816,-3.254 -21.897,-3.843 -21.506,-4.106C-21.531,-4.276 -21.506,-4.226 -21.762,-4.466C-22.018,-4.706 -22.135,-4.677 -22.446,-4.537C-22.581,-4.651 -22.62,-4.935 -22.548,-5.218C-22.631,-5.282 -22.827,-5.367 -23.067,-5.116C-23.275,-6.472 -24.692,-7.51 -24.448,-9.008C-24.352,-9.139 -24.079,-9.271 -23.661,-9.772C-23.903,-9.801 -24.172,-9.876 -24.574,-9.844C-24.701,-9.953 -24.653,-10.352 -24.574,-10.616C-24.862,-10.632 -25.009,-10.708 -25.173,-10.415C-25.601,-11.688 -26.201,-13.497 -25.633,-14.368C-26.476,-15.47 -26.076,-16.361 -25.542,-17.076C-25.327,-17.361 -25.122,-20.189 -24.908,-20.475C-24.692,-20.761 -24.747,-20.226 -24.53,-20.512C-24.028,-21.184 -23.729,-22.51 -23.225,-23.183C-23.011,-23.468 -22.934,-23.105 -22.721,-23.391C-22.506,-23.678 -22.273,-25.382 -22.05,-25.66L-21.493,-26.402C-21.336,-26.282 -21.406,-25.957 -21.333,-25.877C-20.792,-26.089 -20.303,-27.291 -19.489,-27.223C-19.43,-27.315 -19.539,-27.518 -19.666,-27.67C-18.941,-28.429 -17.637,-29.24 -17.423,-29.525C-17.209,-29.811 -17.181,-29.838 -17.096,-30.096C-17.229,-30.052 -17.465,-30.052 -17.594,-30.201L-17.198,-30.728C-16.696,-30.677 -16.452,-31.02 -16.011,-31.017C-16.19,-30.706 -16.435,-30.394 -16.513,-30.13C-15.788,-30.09 -15.212,-31.369 -14.544,-31.911C-13.987,-32.362 -13.081,-32.292 -12.498,-32.758C-11.422,-32.408 -9.033,-32.805 -7.727,-32.795C-7.727,-32.795 -7.799,-32.64 -7.792,-32.463C-7.255,-32.133 -6.057,-32.202 -5.354,-31.54L-5.077,-31.278C-4.919,-31.302 -4.794,-31.502 -4.591,-31.755C-3.039,-31.309 -1.782,-30.205 0,-30.394M-24.771,-15.274L-25.087,-14.852C-24.933,-13.895 -24.749,-12.763 -24.744,-11.572L-24.275,-11.13L-23.959,-11.553C-24.46,-12.5 -24.64,-14.276 -24.771,-15.274M-23.644,-10.708C-23.801,-10.571 -24.083,-10.879 -24.399,-10.685L-23.708,-10.033C-23.581,-10.168 -23.581,-10.433 -23.644,-10.708M-7.247,0.003C-7.862,-0.176 -8.465,-0.333 -9.286,-0.193L-8.926,0.146C-8.439,0.439 -7.976,0.288 -7.439,0.564C-7.316,0.425 -7.216,0.256 -7.247,0.003" style="fill:rgb(255,221,0);"/>
            </g>
            <g transform="matrix(1,0,0,1,121.141,270.898)">
                <path d="M0,-81.69C0.742,-80.994 0.152,-80.877 0.465,-79.887C0.611,-79.917 0.832,-80.129 0.772,-80.282C1.275,-79.906 1.636,-79.569 4.024,-77.103C3.924,-76.935 3.854,-76.875 3.862,-76.692C3.947,-76.619 4.144,-76.533 4.277,-76.674C11.661,-68.988 14.725,-48.898 8.463,-38.895C8.31,-39.007 8.345,-39.17 8.131,-38.884C7.915,-38.599 8.077,-38.35 7.862,-38.063C7.648,-37.778 7.443,-37.97 7.229,-37.684C7.015,-37.398 7.476,-37.549 7.262,-37.264L5.686,-35.162C3.779,-32.618 -2.581,-29.576 -3.76,-29.546L-3.979,-29.254C-0.629,-22.255 1.425,-11.465 -0.059,-3.371C0.234,1.107 -2.513,5.258 -3.727,9.435C-4.138,9.489 -4.974,9.709 -5.188,9.993C-5.391,10.266 -4.895,11.463 -5.76,12.601L-6.205,13.193C-6.889,12.875 -7.057,13.183 -7.153,13.312C-7.348,13.569 -7.35,13.646 -7.121,14.187C-7.43,14.362 -7.61,14.15 -7.823,14.438C-8.037,14.722 -7.843,14.81 -7.708,14.964L-7.985,15.332C-8.192,15.626 -8.415,15.626 -8.638,15.523C-8.638,15.523 -8.629,15.628 -8.507,15.796C-9.013,16.004 -9.786,16.588 -10,16.876C-10.044,16.933 -10.04,17.678 -9.95,17.961C-10.979,18.577 -10.445,19.095 -11.247,20.565C-11.314,20.289 -11.393,20.243 -11.456,20.165C-12.221,20.761 -13.806,21.487 -14.022,21.772C-14.236,22.058 -14.183,22.104 -14.06,22.251L-14.463,22.791C-14.614,22.676 -14.476,22.612 -14.731,22.371C-15.063,22.06 -15.976,22.012 -16.111,21.997L-16.422,22.41C-16.399,22.588 -16.297,22.684 -16.315,22.838C-16.101,22.7 -15.928,22.471 -15.616,22.329L-15.334,22.594C-15.075,22.828 -15.45,22.866 -15.326,23.013C-15.511,23.296 -15.716,23.104 -15.93,23.389C-16.144,23.676 -16.051,23.665 -15.991,23.819C-16.136,23.781 -16.188,23.731 -16.402,24.02C-16.616,24.303 -16.565,24.352 -16.506,24.506C-16.651,24.467 -16.616,24.303 -16.83,24.591C-17.046,24.874 -16.909,24.809 -16.784,24.982C-17.882,25.27 -18.592,25.081 -19.362,26.111C-19.579,26.394 -19.559,27.054 -19.692,27.359C-19.692,27.359 -19.673,27.252 -19.667,27.091C-20.563,27.149 -21.435,28.148 -22.231,28.305C-22.367,28.715 -22.142,29.099 -22.236,29.695C-22.407,29.584 -22.688,29.614 -22.93,29.866C-22.994,29.59 -23.009,29.355 -22.917,29.106C-27.793,31.297 -35.083,33.772 -40.524,32.643C-40.642,32.536 -40.579,32.373 -40.563,32.218C-40.563,32.218 -40.666,32.221 -40.804,32.287C-40.769,32.126 -40.778,32.021 -41.033,31.781C-41.07,31.745 -47.682,31.845 -53.728,28.012L-54.328,28.813C-54.968,28.439 -55.55,28.283 -56.203,27.831C-56.249,27.919 -56.524,28.051 -56.597,28.141C-56.577,28.322 -56.651,28.224 -56.396,28.463C-55.374,29.424 -44.313,33.632 -41.459,34.305L-41.018,35.013C-41.592,34.759 -42.234,34.554 -42.937,34.505C-43.758,34.439 -43.719,35.497 -44.627,35.518C-45.374,35.526 -46.18,35.114 -46.914,35.064C-51.852,33.186 -59.908,31.986 -64.61,27.572C-64.865,27.333 -65.029,26.983 -65.265,26.81C-66.026,25.508 -66.723,23.761 -67.704,22.625C-67.629,22.402 -68,20.685 -68.295,20.409C-68.55,20.17 -68.747,20.365 -68.97,20.265C-68.841,20.492 -69.014,20.905 -68.786,21.167C-69.199,21.366 -69.511,21.215 -70.057,21.663C-70.315,21.337 -71.042,20.468 -71.477,20.731C-71.531,20.462 -71.751,20.06 -71.765,19.356C-71.59,19.461 -71.605,19.251 -71.35,19.491C-71.094,19.729 -70.891,20.507 -70.636,20.746C-70.38,20.985 -69.998,20.771 -69.745,20.849C-69.688,20.759 -69.612,20.538 -69.833,20.258C-69.468,20.294 -68.926,20.206 -68.712,19.921C-68.498,19.635 -68.668,19.28 -68.924,19.041C-69.18,18.802 -69.273,18.811 -69.409,18.877C-69.375,18.713 -69.304,18.655 -69.315,18.472C-69.4,18.398 -69.596,18.312 -69.815,18.572L-70.289,18.127C-70.223,17.768 -70.359,17.274 -70.361,16.911C-71.164,17.346 -71.313,17.548 -72.317,17.6C-72.223,17.405 -71.99,17.36 -71.841,17.36C-71.793,17.072 -71.826,16.652 -71.741,16.393C-71.874,16.437 -71.913,16.525 -72.059,16.666C-72.23,16.315 -72.69,16.286 -72.945,16.046C-73.202,15.804 -73.431,15.299 -73.352,15.196C-73.352,15.196 -73.273,15.123 -73.284,14.942C-73.37,14.868 -73.59,14.8 -73.924,14.929C-73.958,14.846 -74.267,13.83 -74.612,13.505C-74.867,13.266 -75.079,13.251 -75.333,13.173C-75.472,13.375 -75.328,13.828 -75.314,14.194C-75.167,14.17 -75.02,14.116 -74.926,14.502C-75.048,14.416 -75.177,14.314 -75.302,14.206C-75.472,14.057 -75.621,13.911 -75.747,13.779C-75.354,13.131 -75.623,12.787 -75.555,11.883C-75.245,12.357 -74.686,12.56 -74.258,11.988C-74.042,11.703 -74.247,11.509 -74.033,11.224C-73.819,10.937 -73.649,10.955 -73.402,10.847C-73.35,10.046 -73.572,10 -74.071,9.533C-74.402,9.22 -75.007,8.663 -75.406,9.047C-75.572,8.697 -75.535,8.351 -75.791,8.111C-75.831,8.077 -76.828,7.607 -77.472,8.285C-77.472,8.285 -77.419,8.111 -77.404,7.959C-77.619,8.097 -77.994,8.133 -78.348,8.243C-78.173,7.92 -77.712,7.769 -77.499,7.483C-77.326,7.256 -77.745,6.276 -77.784,6.24C-78.04,6 -78.118,6.221 -78.264,6.359C-78.433,6.01 -78.621,5.844 -78.848,5.604L-78.356,4.95C-78.105,5.16 -77.729,5.121 -77.474,5.363C-77.219,5.602 -76.112,7.031 -75.856,7.27C-75.601,7.51 -74.78,7.896 -74.333,8.155L-74.114,7.864C-74.14,7.686 -74.321,7.544 -74.446,7.378C-74.446,7.378 -74.3,7.202 -74.158,7.209C-74.206,6.843 -74.512,6.533 -74.438,6.245L-74.887,5.822C-75.007,6.022 -75.356,6.25 -75.562,6.738L-76.042,6.286C-75.617,4.923 -75.974,3.726 -75.878,3.352C-76.359,3.628 -77.016,3.802 -77.55,3.922C-77.376,3.603 -77.119,3.265 -76.894,2.969L-77.745,2.168C-77.911,2.194 -77.78,2.056 -77.994,2.341C-78.21,2.626 -78.099,2.827 -77.87,3.083C-78.764,3.65 -79.426,2.795 -80.277,3.484L-80.756,3.035C-80.565,2.751 -80.319,2.886 -80.105,2.6C-79.891,2.314 -80.065,2.096 -79.996,1.813C-80.077,1.75 -80.256,1.872 -80.472,2.128C-80.828,1.823 -80.97,1.467 -80.985,1.227C-80.886,1.087 -80.636,1.251 -80.286,1.224C-80.134,1.014 -80.177,0.67 -80.289,0.379C-80.38,0.296 -80.559,0.419 -80.776,0.675C-80.926,0.562 -81.115,0.579 -81.245,0.428L-80.977,0.069C-81.241,-0.944 -81.577,-1.452 -81.891,-2.594C-81.793,-3.034 -81.614,-3.512 -81.317,-3.752C-81.939,-4.95 -81.686,-7.165 -81.724,-7.201C-81.979,-7.441 -82.099,-7.165 -82.328,-7.407C-82.228,-7.575 -81.979,-7.441 -81.765,-7.727C-81.551,-8.013 -81.64,-8.346 -81.558,-8.604C-81.688,-8.56 -81.983,-8.429 -82.314,-8.541C-82.254,-8.921 -82.079,-9.103 -82.175,-9.5C-81.99,-9.4 -81.983,-9.295 -81.77,-9.581C-81.553,-9.866 -81.771,-10.028 -81.679,-10.278C-81.679,-10.278 -81.773,-10.27 -81.909,-10.126L-82.28,-10.475C-82.11,-11.32 -82.363,-12.498 -82.138,-13.121C-81.343,-14.645 -81.71,-16.316 -81.518,-18.437C-81.477,-18.556 -80.551,-19.355 -81.403,-19.807C-81.153,-19.888 -80.944,-19.905 -80.686,-19.82L-80.311,-20.319C-80.765,-20.528 -80.913,-20.718 -81.26,-20.603C-80.856,-21.707 -80.728,-23.745 -80.629,-25.021C-80.457,-24.914 -80.404,-24.835 -80.263,-24.826C-80.645,-27.965 -78.916,-30.989 -78.603,-33.767C-78.509,-33.899 -78.275,-33.945 -78.131,-33.938C-78.275,-35.976 -77.042,-38.249 -76.684,-40.032C-76.519,-39.922 -76.465,-39.874 -76.252,-40.159C-76.038,-40.445 -76.24,-40.638 -76.027,-40.923C-75.856,-41.152 -75.18,-41.588 -74.516,-42.466C-74.304,-42.491 -74.356,-42.571 -74.101,-42.33C-73.719,-41.97 -75.885,-35.992 -77.28,-25.976C-77.957,-20.111 -73.228,-3.317 -68.119,1.481C-67.862,1.721 -67.846,1.347 -67.59,1.586C-67.334,1.828 -67.472,2.475 -67.217,2.717C-66.961,2.956 -66.944,2.582 -66.688,2.822C-66.433,3.064 -66.347,3.53 -66.092,3.772C-65.123,4.684 -64.387,5.912 -63.077,5.831C-63.17,6.027 -63.265,6.037 -63.009,6.276C-62.754,6.518 -62.836,6.05 -62.581,6.289C-62.326,6.528 -62.856,6.42 -62.598,6.66C-62.343,6.899 -62.223,6.623 -61.968,6.865C-61.712,7.104 -61.716,7.495 -61.509,7.879C-61.333,7.955 -60.175,8.16 -59.957,8.363C-59.701,8.602 -59.566,9.118 -59.311,9.359C-59.055,9.599 -57.555,10.618 -57.299,10.857C-57.044,11.097 -57.011,11.517 -56.756,11.756C-56.385,12.105 -55.841,12.347 -55.287,12.357C-55.249,12.616 -55.206,12.824 -54.948,13.065C-51.69,16.122 -39.275,17.668 -37.42,16.979C-37.42,16.979 -37.417,16.857 -37.542,16.689C-36.579,16.371 -35.374,16.803 -35.341,16.759C-35.127,16.474 -34.223,16.743 -33.873,16.914C-33.821,16.823 -33.743,16.603 -33.97,16.334C-33.201,16.17 -33.022,16.672 -32.511,16.7C-32.633,16.466 -32.821,16.3 -33.046,16.036C-32.396,15.816 -31.083,16.422 -30.59,15.765C-30.376,15.479 -26.974,15.421 -25.583,14.585C-23.935,13.573 -21.93,11.776 -20.103,10.762C-19.616,10.488 -18.328,9.398 -18.059,9.041L-16.666,7.183C-16.45,6.897 -13.823,4.322 -13.609,4.036C-12.784,2.937 -10.279,-1.964 -9.708,-3.564C-9.103,-7.153 -7.968,-12.285 -7.843,-15.999C-8.02,-16.347 -8.338,-16.836 -8.673,-17.381C-8.487,-17.655 -8.417,-17.98 -8.262,-18.16C-9.567,-19.892 -9.52,-22.231 -9.557,-22.267C-9.812,-22.507 -9.804,-22.401 -9.931,-22.267L-10.319,-22.631C-10,-22.824 -9.756,-22.636 -9.531,-22.534C-9.66,-22.762 -9.572,-23.058 -9.828,-23.299C-10.083,-23.539 -10.201,-23.509 -10.537,-23.381C-10.6,-23.859 -10.919,-24.334 -11.035,-24.708C-10.795,-24.763 -10.708,-24.877 -10.566,-24.869C-10.599,-25.025 -10.511,-25.14 -10.521,-25.32L-10.76,-25.541C-11.015,-25.779 -10.933,-25.31 -11.188,-25.55C-11.291,-25.646 -12.285,-30.476 -13.459,-31.58C-13.714,-31.819 -14.295,-31.974 -14.55,-32.214C-15.062,-32.694 -15.802,-33.307 -15.75,-34.121C-16.559,-34.236 -17.474,-34.722 -18.583,-35.223C-18.612,-35.472 -18.511,-35.64 -18.358,-35.811L-19.011,-36.424C-19.251,-36.293 -19.712,-36.477 -19.968,-36.716C-20.594,-37.304 -21.528,-38.902 -21.657,-39.325C-21.557,-39.475 -21.396,-39.226 -21.181,-39.512C-20.968,-39.798 -21.018,-39.846 -20.95,-39.766C-20.29,-40.106 -19.799,-40.914 -19.127,-40.978C-17.898,-40.539 -12.933,-40.438 -12.203,-39.754C-11.948,-39.515 -12.267,-39.59 -12.273,-39.429C-11.946,-39.484 -11.553,-39.311 -11.151,-39.346L-9.304,-37.613C-9.072,-37.399 -8.753,-36.517 -8.474,-36.253C-7.197,-35.054 -0.738,-37.502 0.764,-38.43C1.463,-38.87 2.205,-39.576 2.375,-39.806C2.589,-40.091 2.454,-40.024 2.33,-40.194C2.688,-40.345 2.987,-40.619 3.105,-40.776C5.174,-43.536 5.329,-47.982 4.563,-50.358C4.921,-51.321 4.84,-52.309 4.314,-53.521L4.659,-53.982C4.659,-53.982 4.819,-53.978 4.563,-54.216C4.308,-54.456 4.34,-54.036 4.085,-54.276C3.83,-54.516 3.762,-54.774 3.528,-55.023L3.801,-55.387C3.775,-55.57 3.622,-55.696 3.284,-55.823C3.381,-56.009 3.596,-56.294 3.34,-56.535C3.085,-56.774 2.965,-56.499 2.759,-56.689C1.84,-57.554 1.664,-57.73 1.325,-57.857C1.424,-58.043 1.502,-58.262 1.272,-58.504C1.373,-58.673 1.713,-58.831 1.952,-58.743C2.144,-59.975 0.235,-62.177 0.196,-62.212C-0.057,-62.453 -0.485,-62.464 -0.74,-62.703C-1.328,-63.256 -1.845,-63.591 -1.747,-64.436L-1.979,-64.653C-2.236,-64.889 -2.126,-64.687 -2.279,-64.548C-2.509,-65.405 -3.171,-66.545 -3.631,-66.978C-3.887,-67.217 -4.109,-67.036 -4.365,-67.276C-4.62,-67.516 -4.194,-67.505 -4.45,-67.745C-4.706,-67.985 -4.543,-67.736 -4.679,-67.67C-4.646,-67.832 -4.568,-68.051 -4.823,-68.29C-5.079,-68.53 -5.267,-68.513 -9.245,-72.249C-9.626,-72.416 -10.037,-72.601 -10.292,-72.842C-10.433,-72.974 -10.76,-73.67 -10.795,-73.709L-11.372,-74.249C-11.603,-74.125 -11.664,-74.031 -11.878,-73.746C-12.404,-73.044 -12.76,-73.306 -13.799,-73.28C-13.981,-72.776 -13.548,-72.485 -13.31,-72.131L-13.637,-71.695C-13.614,-72.116 -13.819,-72.308 -13.745,-72.583L-14.164,-72.807L-14.38,-72.52C-14.354,-72.338 -14.173,-72.197 -14.048,-72.063C-14.206,-71.576 -14.228,-71.078 -14.441,-70.792C-15.384,-69.535 -16.957,-68.137 -17.963,-66.793C-18.339,-66.293 -19.465,-65.405 -19.709,-65.396C-19.758,-65.109 -19.738,-64.658 -19.952,-64.372C-20.638,-63.458 -21.105,-63.532 -22.103,-62.203C-22.682,-61.43 -23.642,-60.236 -24.524,-61.064C-24.78,-61.303 -24.529,-61.487 -24.522,-61.648C-24.662,-61.611 -24.85,-61.593 -25.011,-61.583L-25.323,-61.166C-25.304,-60.988 -25.129,-60.852 -24.188,-60.14L-24.809,-59.31C-25.016,-59.017 -25.182,-59.029 -25.389,-58.865C-26.402,-59.276 -26.487,-57.593 -27.238,-57.678C-27.238,-57.678 -27.234,-57.568 -27.11,-57.432C-27.267,-56.948 -27.723,-56.567 -28.026,-56.197C-28.177,-56.31 -28.316,-56.69 -28.243,-56.963C-28.675,-57.148 -28.889,-56.637 -29.175,-56.289L-29.5,-56.596C-29.664,-56.565 -29.751,-56.452 -29.897,-56.455C-29.93,-55.964 -29.694,-55.343 -29.787,-54.979C-30.011,-54.942 -29.982,-55.179 -30.197,-54.894C-30.595,-54.364 -30.876,-53.699 -30.874,-53.295C-31.552,-53.045 -32.088,-52.375 -32.492,-51.627C-32.649,-51.739 -32.5,-52.019 -32.498,-52.184C-32.498,-52.184 -32.664,-52.534 -32.878,-52.247C-33.158,-51.875 -33.583,-50.377 -34.055,-49.749C-34.271,-49.461 -34.875,-49.349 -35.092,-49.063C-35.306,-48.777 -34.972,-48.757 -35.188,-48.471C-35.402,-48.185 -37.063,-46.898 -37.28,-46.611L-38.961,-44.367C-39.175,-44.08 -39.101,-44.645 -39.319,-44.36L-40.974,-42.153C-40.786,-40.868 -42.212,-37.943 -42.994,-36.9C-43.208,-36.614 -44.287,-35.873 -44.502,-35.586C-44.716,-35.301 -44.596,-34.994 -44.813,-34.708C-45.026,-34.422 -45.494,-34.264 -45.775,-33.986C-47.111,-33.852 -48.02,-33.156 -49.992,-33.539C-49.62,-34.334 -50.806,-35.328 -51.197,-36.324C-50.155,-39.884 -51.645,-44.337 -52.236,-48.402C-53.19,-60.775 -53.563,-72.798 -53.334,-85.507C-52.943,-86.762 -53.716,-87.685 -52.632,-88.693C-52.773,-98.289 -50.926,-108.031 -48.02,-117.216C-48.112,-116.479 -48.249,-115.842 -48.289,-115.132L-48.022,-114.88C-47.863,-114.905 -47.824,-114.993 -47.672,-115.132C-46.907,-112.29 -47.83,-107.93 -47.669,-104.617C-47.177,-104.534 -46.952,-104.773 -46.93,-104.803C-46.716,-105.089 -46.621,-105.416 -46.651,-105.866C-46.55,-106.005 -46.262,-105.928 -46.018,-106.18C-45.755,-103.355 -45.896,-101.584 -45.035,-99.806C-44.885,-99.833 -44.76,-100.036 -44.667,-100.047C-45.083,-99.458 -44.662,-98.884 -44.721,-98.008C-44.996,-98.211 -44.943,-98.746 -45.197,-98.986C-45.455,-99.226 -45.924,-99.179 -46.138,-98.894C-46.352,-98.607 -46.262,-98.233 -46.009,-97.992L-44.603,-96.673C-44.347,-96.434 -44.087,-96.513 -43.665,-96.763C-43.594,-96.282 -43.751,-95.857 -43.616,-95.305C-43.714,-95.158 -43.961,-95.293 -44.177,-95.007C-45.131,-93.734 -43.831,-93.556 -44.728,-91.669C-44.738,-90.627 -43.122,-90.726 -43.026,-89.448C-43.21,-88.872 -43.59,-88.124 -43.337,-87.883C-43.079,-87.644 -43.14,-87.797 -42.965,-87.926C-43.404,-86.779 -42.987,-87.07 -43.331,-86.613C-43.632,-86.212 -43.653,-85.917 -43.011,-85.211C-43.199,-84.93 -43.236,-84.451 -43.236,-84.086C-43.236,-84.086 -43.133,-84.089 -42.979,-84.228C-42.844,-83.501 -43.04,-80.786 -42.197,-79.995C-41.941,-79.755 -41.763,-79.88 -41.597,-80.012C-41.629,-79.604 -41.345,-79.39 -41.221,-79.227C-41.533,-79.036 -41.763,-79.013 -41.994,-79.107C-41.939,-78.749 -42.197,-78.393 -42.273,-77.923C-42.127,-78.009 -41.597,-77.855 -41.394,-78.451C-41.413,-78.036 -41.566,-77.62 -41.557,-77.252C-41.417,-77.286 -41.197,-77.499 -40.942,-77.257C-40.506,-76.851 -40.539,-74.542 -40.465,-74.445C-40.566,-74.274 -40.799,-74.23 -40.937,-74.248C-40.937,-74.248 -40.935,-74.132 -40.808,-73.986C-40.996,-73.703 -41.238,-73.39 -41.358,-73.003L-41.736,-73.357C-41.636,-74.11 -42.053,-74.906 -42.153,-75.279C-42.299,-75.248 -42.168,-75.39 -42.383,-75.104C-42.599,-74.818 -42.328,-74.034 -42.387,-73.536C-42.301,-73.469 -42.028,-73.602 -41.904,-73.451C-42.383,-72.9 -42.288,-72.332 -42.24,-71.649L-41.977,-71.4C-41.646,-71.539 -41.439,-72.038 -40.968,-72.114C-40.998,-72.273 -41.013,-72.482 -41.016,-72.747C-40.782,-72.793 -40.743,-72.88 -40.59,-73.019C-40.389,-72.236 -40.133,-71.402 -40.113,-70.484C-40.411,-70.919 -40.83,-71.335 -40.838,-71.706C-40.979,-71.669 -40.891,-71.752 -41.105,-71.466C-41.437,-71.024 -39.666,-68.972 -40.522,-67.84C-40.503,-67.658 -40.236,-67.631 -40.116,-67.506C-40.254,-66.118 -39.937,-65.199 -39.496,-64.093C-39.684,-64.189 -39.821,-64.154 -39.985,-64.144C-40.136,-63.933 -39.987,-63.471 -40.003,-62.972C-40.212,-63.332 -40.461,-63.523 -40.337,-63.85L-41.083,-64.553L-41.544,-63.94C-41.426,-63.671 -41.223,-63.296 -41.042,-63.119C-40.88,-63.141 -40.753,-63.344 -40.585,-63.475C-40.775,-62.597 -40.123,-62.36 -39.792,-61.892C-39.789,-60.795 -39.897,-59.349 -40.838,-58.602C-40.526,-58.16 -40.28,-57.523 -40.145,-56.97C-40.243,-56.823 -40.391,-56.893 -40.542,-56.893C-40.59,-56.607 -40.664,-56.147 -40.409,-55.908C-40.026,-55.547 -39.582,-56.081 -39.391,-56.219L-31.841,-66.285C-31.164,-66.897 -30.371,-67.432 -30.201,-67.661C-29.987,-67.946 -30.19,-68.139 -29.976,-68.425C-29.762,-68.711 -29.428,-68.69 -29.206,-68.871L-20.28,-80.772C-19.86,-80.978 -19.502,-81.225 -19.148,-81.465L-15.782,-85.491C-14.489,-87.485 -18.885,-88.215 -16.509,-88.482C-16.343,-88.372 -14.218,-88.209 -13.989,-88.116C-14.028,-88.263 -13.852,-88.469 -13.97,-88.834C-12.214,-89.599 -10.45,-87.655 -8.203,-87.58C-6.828,-86.806 -5.375,-85.631 -3.931,-85.183C-3.816,-85.077 -3.987,-84.849 -3.732,-84.609C-3.476,-84.369 -3.406,-84.694 -3.151,-84.453C-2.895,-84.214 -3.061,-84.145 -3.077,-83.992C-3.077,-83.992 -2.974,-83.994 -2.843,-84.136L-1.85,-83.203C-1.952,-83.035 -2.131,-82.912 -1.876,-82.672C-1.62,-82.432 -1.21,-82.631 -0.954,-82.391C-0.699,-82.152 -1.279,-82.306 -1.024,-82.067C-0.769,-81.827 -0.256,-81.93 0,-81.69M-68.655,10.915C-69.173,10.832 -69.649,10.984 -70.083,11.077L-69.308,11.631C-69.011,11.262 -68.621,11.169 -68.655,10.915M-70.891,10.059C-70.795,10.454 -70.47,10.769 -70.184,10.964C-70.28,10.569 -70.605,10.252 -70.891,10.059M-70.459,12.728C-70.714,12.489 -71.005,12.411 -71.271,12.206C-71.352,12.391 -71.143,14.423 -70.976,14.58C-70.682,14.856 -70.184,14.629 -69.69,14.48C-69.815,14.307 -69.736,14.087 -69.636,13.921C-69.966,13.581 -70.204,12.968 -70.459,12.728M-67.087,16.29C-67.856,16.293 -68.489,15.22 -69.099,15.098C-68.981,15.286 -68.972,15.392 -69.187,15.677C-69.4,15.963 -69.69,15.885 -69.879,16.168C-69.751,16.315 -69.743,16.42 -69.809,16.515C-69.972,16.525 -70.206,16.571 -70.306,16.748C-69.935,16.991 -67.862,17.626 -67.337,16.926C-67.123,16.64 -67.181,16.486 -67.087,16.29M-77.077,-6.513L-77.481,-5.973C-77.354,-5.828 -77.236,-5.521 -76.88,-5.216C-76.665,-5.472 -76.594,-5.796 -76.496,-5.982C-76.834,-6.109 -76.992,-6.07 -76.992,-6.07C-76.987,-6.234 -76.926,-6.4 -77.077,-6.513" style="fill:rgb(244,151,19);"/>
            </g>
            <g transform="matrix(1,0,0,1,109.561,194.247)">
                <clipPath id="_clip1">
                    <path d="M-41.053,-12.043C-42.138,-11.035 -41.365,-10.112 -41.756,-8.857C-41.985,3.852 -41.611,15.876 -40.657,28.249C-40.066,32.314 -38.576,36.767 -39.619,40.328C-39.228,41.323 -38.042,42.317 -38.413,43.112C-36.442,43.496 -35.533,42.8 -34.197,42.664C-33.915,42.387 -33.448,42.228 -33.234,41.942C-33.018,41.656 -33.138,41.35 -32.923,41.064C-32.708,40.778 -31.629,40.037 -31.415,39.752C-30.633,38.708 -29.207,35.783 -29.395,34.498L-27.74,32.291C-27.632,32.148 -27.594,32.219 -27.56,32.289C-27.525,32.357 -27.49,32.427 -27.382,32.284L-25.702,30.039C-25.485,29.753 -23.824,28.465 -23.609,28.18C-23.393,27.894 -23.727,27.873 -23.513,27.588C-23.297,27.302 -22.692,27.19 -22.476,26.901C-22.005,26.275 -21.579,24.776 -21.299,24.403C-21.086,24.118 -20.919,24.466 -20.919,24.466C-20.921,24.632 -21.07,24.911 -20.913,25.024C-20.51,24.277 -19.973,23.606 -19.295,23.355C-19.297,22.951 -19.016,22.287 -18.617,21.757C-18.477,21.57 -18.442,21.608 -18.37,21.646C-18.333,21.666 -18.286,21.686 -18.208,21.672C-18.115,21.309 -18.352,20.687 -18.319,20.196C-18.172,20.199 -18.085,20.086 -17.922,20.054L-17.596,20.361C-17.31,20.014 -17.096,19.502 -16.664,19.688C-16.738,19.96 -16.597,20.342 -16.448,20.454C-16.144,20.084 -15.688,19.704 -15.531,19.219C-15.654,19.083 -15.66,18.972 -15.66,18.972C-15.316,19.012 -15.111,18.681 -14.894,18.349C-14.636,17.955 -14.36,17.563 -13.81,17.786C-13.603,17.622 -13.437,17.633 -13.23,17.341L-12.61,16.512C-13.551,15.799 -13.725,15.662 -13.744,15.486L-13.433,15.068C-13.27,15.057 -13.084,15.039 -12.943,15.003C-12.951,15.163 -13.201,15.347 -12.946,15.587C-12.063,16.414 -11.103,15.221 -10.524,14.447C-9.527,13.119 -9.06,13.193 -8.373,12.28C-8.16,11.993 -8.18,11.541 -8.13,11.256C-7.886,11.246 -6.76,10.357 -6.385,9.857C-5.378,8.513 -3.806,7.117 -2.862,5.858C-2.648,5.572 -2.627,5.075 -2.47,4.588C-2.594,4.453 -2.775,4.313 -2.8,4.132L-2.585,3.844L-2.166,4.068C-2.241,4.343 -2.035,4.534 -2.059,4.956L-1.731,4.519C-1.97,4.166 -2.403,3.876 -2.221,3.37C-1.983,3.364 -1.781,3.373 -1.603,3.383C-1.009,3.414 -0.705,3.445 -0.3,2.906C-0.085,2.619 -0.024,2.526 0.207,2.401L0.783,2.941C0.819,2.981 1.146,3.677 1.286,3.809C1.541,4.049 1.953,4.236 2.334,4.402C6.312,8.138 6.499,8.122 6.756,8.36C7.011,8.599 6.933,8.819 6.9,8.981C7.035,8.916 6.873,8.666 7.129,8.906C7.385,9.146 6.958,9.134 7.214,9.374C7.47,9.614 7.692,9.433 7.947,9.674C8.407,10.106 9.07,11.246 9.299,12.103C9.453,11.963 9.343,11.762 9.6,11.998L9.832,12.216C9.733,13.059 10.251,13.396 10.838,13.948C11.094,14.187 11.522,14.198 11.775,14.438C11.814,14.474 13.723,16.676 13.53,17.908C13.292,17.82 12.951,17.978 12.852,18.147C13.081,18.388 13.003,18.608 12.904,18.794C13.242,18.921 13.419,19.097 14.338,19.961C14.436,20.052 14.514,20.038 14.597,20.022C14.688,20.007 14.785,19.991 14.919,20.116C15.174,20.356 14.96,20.642 14.863,20.829C15.2,20.954 15.353,21.082 15.38,21.264L15.107,21.628C15.34,21.877 15.408,22.134 15.664,22.374C15.791,22.496 15.847,22.45 15.903,22.406C15.958,22.36 16.014,22.316 16.142,22.434C16.398,22.674 16.238,22.668 16.238,22.668L15.894,23.131C16.42,24.343 16.499,25.331 16.142,26.294C16.908,28.669 16.753,33.116 14.685,35.874C14.565,36.031 14.266,36.306 13.908,36.456C14.032,36.627 14.168,36.559 13.954,36.844C13.784,37.076 13.041,37.781 12.343,38.221C10.84,39.149 4.383,41.597 3.105,40.397C2.825,40.134 2.506,39.252 2.275,39.037L0.428,37.305C0.236,37.322 0.045,37.292 -0.136,37.261C-0.334,37.228 -0.523,37.195 -0.694,37.223C-0.688,37.06 -0.369,37.136 -0.624,36.897C-1.354,36.214 -6.319,36.113 -7.547,35.674C-8.221,35.738 -8.712,36.546 -9.371,36.884C-9.439,36.805 -9.389,36.852 -9.603,37.138C-9.726,37.304 -9.831,37.292 -9.918,37.28C-9.982,37.271 -10.036,37.262 -10.079,37.326C-9.95,37.749 -9.016,39.346 -8.389,39.934C-8.134,40.174 -7.673,40.358 -7.433,40.227L-6.78,40.841C-6.932,41.012 -7.033,41.18 -7.005,41.427C-5.895,41.928 -4.98,42.416 -4.171,42.531C-4.223,43.343 -3.483,43.956 -2.971,44.437C-2.717,44.677 -2.135,44.832 -1.881,45.07C-0.706,46.176 0.288,51.004 0.391,51.101C0.518,51.222 0.561,51.163 0.604,51.107C0.648,51.049 0.691,50.992 0.819,51.109L1.057,51.332C1.068,51.511 0.98,51.626 1.013,51.782C0.871,51.775 0.783,51.888 0.544,51.943C0.659,52.318 0.98,52.793 1.042,53.269C1.379,53.142 1.495,53.113 1.751,53.351C2.006,53.594 1.919,53.889 2.048,54.117C1.823,54.014 1.579,53.828 1.26,54.019L1.648,54.384C1.775,54.249 1.766,54.143 2.022,54.384C2.059,54.421 2.011,56.758 3.316,58.491C3.161,58.671 3.092,58.996 2.906,59.269C3.24,59.815 3.559,60.305 3.736,60.652C3.611,64.366 2.475,69.498 1.873,73.088C1.299,74.687 -1.205,79.588 -2.031,80.687C-2.244,80.972 -4.871,83.547 -5.087,83.833L-6.481,85.693C-6.749,86.049 -8.037,87.138 -8.524,87.412C-10.35,88.426 -12.357,90.224 -14.005,91.236C-15.396,92.071 -18.797,92.131 -19.011,92.416C-19.31,92.814 -19.908,92.749 -20.477,92.685C-20.85,92.643 -21.211,92.601 -21.467,92.688C-21.242,92.95 -21.055,93.118 -20.933,93.351C-21.443,93.323 -21.621,92.821 -22.391,92.986C-22.165,93.254 -22.242,93.474 -22.294,93.564C-22.644,93.393 -23.548,93.124 -23.762,93.409C-23.775,93.427 -23.965,93.373 -24.248,93.319C-24.695,93.232 -25.375,93.146 -25.964,93.339C-25.839,93.508 -25.841,93.631 -25.841,93.631C-27.697,94.319 -40.112,92.772 -43.369,89.716C-43.627,89.474 -43.67,89.267 -43.708,89.008C-44.263,88.998 -44.806,88.757 -45.177,88.406C-45.432,88.168 -45.465,87.748 -45.72,87.508C-45.977,87.269 -47.476,86.249 -47.732,86.011C-47.988,85.768 -48.123,85.253 -48.378,85.013C-48.596,84.811 -49.754,84.607 -49.93,84.531C-50.138,84.147 -50.134,83.756 -50.389,83.517C-50.518,83.396 -50.611,83.403 -50.706,83.412C-50.799,83.421 -50.893,83.429 -51.02,83.311C-51.277,83.071 -50.747,83.179 -51.003,82.939C-51.13,82.821 -51.174,82.878 -51.217,82.934C-51.26,82.993 -51.303,83.049 -51.431,82.927C-51.686,82.689 -51.592,82.679 -51.498,82.483C-52.809,82.563 -53.544,81.334 -54.513,80.422C-54.768,80.181 -54.854,79.714 -55.109,79.472C-55.237,79.353 -55.305,79.387 -55.374,79.421C-55.442,79.454 -55.511,79.488 -55.638,79.367C-55.893,79.127 -55.755,78.479 -56.012,78.237C-56.14,78.118 -56.207,78.152 -56.276,78.185C-56.344,78.219 -56.412,78.253 -56.54,78.132C-61.649,73.334 -66.378,56.539 -65.701,50.676C-64.306,40.658 -62.14,34.681 -62.522,34.321C-62.778,34.081 -62.726,34.159 -62.938,34.186C-63.601,35.061 -64.278,35.499 -64.449,35.728C-64.662,36.013 -64.459,36.206 -64.674,36.492C-64.887,36.777 -64.94,36.728 -65.105,36.619C-65.463,38.402 -66.697,40.675 -66.553,42.713C-66.697,42.706 -66.93,42.752 -67.024,42.883C-67.337,45.661 -69.066,48.686 -68.684,51.825C-68.825,51.817 -68.878,51.738 -69.051,51.631C-69.149,52.906 -69.278,54.943 -69.681,56.048C-69.334,55.933 -69.186,56.123 -68.732,56.332L-69.107,56.831C-69.365,56.746 -69.575,56.762 -69.824,56.843C-68.972,57.296 -69.898,58.094 -69.94,58.214C-70.132,60.334 -69.765,62.007 -70.56,63.529C-70.785,64.152 -70.531,65.331 -70.701,66.176L-70.331,66.526C-70.195,66.382 -70.101,66.372 -70.101,66.372C-70.192,66.623 -69.974,66.785 -70.191,67.07C-70.404,67.355 -70.411,67.251 -70.597,67.152C-70.5,67.547 -70.676,67.729 -70.736,68.111C-70.404,68.223 -70.11,68.092 -69.979,68.047C-70.062,68.306 -69.972,68.638 -70.186,68.924C-70.4,69.209 -70.649,69.076 -70.749,69.244C-70.634,69.365 -70.547,69.356 -70.456,69.348C-70.366,69.339 -70.272,69.331 -70.145,69.449C-70.108,69.487 -70.361,71.702 -69.738,72.898C-70.035,73.138 -70.214,73.618 -70.312,74.057C-69.999,75.199 -69.662,75.707 -69.398,76.721L-69.666,77.08C-69.536,77.229 -69.347,77.214 -69.197,77.327C-68.98,77.07 -68.802,76.947 -68.71,77.029C-68.598,77.321 -68.555,77.666 -68.707,77.876C-68.843,77.886 -68.963,77.867 -69.066,77.849C-69.229,77.822 -69.346,77.793 -69.407,77.878C-69.391,78.118 -69.249,78.474 -68.894,78.779C-68.678,78.522 -68.498,78.401 -68.418,78.463C-68.487,78.748 -68.312,78.964 -68.526,79.252C-68.741,79.536 -68.986,79.402 -69.178,79.686L-68.698,80.134C-68.257,79.777 -67.864,79.837 -67.464,79.897C-67.095,79.95 -66.72,80.006 -66.291,79.733C-66.52,79.478 -66.631,79.278 -66.415,78.992C-66.262,78.787 -66.286,78.802 -66.25,78.816C-66.237,78.821 -66.214,78.827 -66.167,78.82L-65.315,79.619C-65.54,79.916 -65.798,80.254 -65.971,80.572C-65.436,80.452 -64.781,80.279 -64.299,80.003C-64.395,80.377 -64.038,81.575 -64.463,82.936L-63.983,83.389C-63.778,82.901 -63.428,82.672 -63.308,82.472L-62.859,82.897C-62.933,83.185 -62.627,83.493 -62.579,83.86C-62.722,83.852 -62.867,84.029 -62.867,84.029C-62.743,84.195 -62.561,84.338 -62.535,84.516L-62.754,84.806C-63.201,84.546 -64.023,84.161 -64.278,83.921C-64.533,83.682 -65.64,82.253 -65.896,82.014C-66.151,81.772 -66.527,81.811 -66.778,81.601L-67.269,82.256C-67.042,82.494 -66.854,82.661 -66.685,83.011C-66.539,82.871 -66.461,82.651 -66.205,82.891C-66.167,82.927 -65.747,83.906 -65.92,84.134C-66.133,84.419 -66.595,84.571 -66.769,84.893C-66.415,84.785 -66.04,84.748 -65.826,84.611C-65.841,84.762 -65.893,84.935 -65.893,84.935C-65.25,84.257 -64.251,84.728 -64.213,84.762C-63.956,85.003 -63.993,85.347 -63.828,85.698C-63.428,85.314 -62.824,85.87 -62.492,86.184C-61.993,86.651 -61.771,86.697 -61.823,87.498C-62.071,87.606 -62.241,87.589 -62.454,87.874C-62.668,88.161 -62.463,88.353 -62.68,88.639C-63.108,89.211 -63.666,89.008 -63.976,88.533C-64.044,89.437 -63.775,89.783 -64.169,90.431C-64.042,90.562 -63.893,90.709 -63.723,90.856C-63.599,90.965 -63.469,91.067 -63.347,91.152C-63.442,90.767 -63.588,90.821 -63.736,90.844C-63.749,90.479 -63.893,90.026 -63.754,89.824C-63.501,89.902 -63.289,89.916 -63.033,90.156C-62.688,90.482 -62.38,91.498 -62.345,91.581C-62.011,91.451 -61.791,91.519 -61.705,91.593C-61.695,91.774 -61.774,91.847 -61.774,91.847C-61.852,91.949 -61.623,92.454 -61.367,92.698C-61.111,92.936 -60.651,92.966 -60.481,93.318C-60.334,93.176 -60.295,93.088 -60.162,93.043C-60.247,93.303 -60.214,93.723 -60.263,94.012C-60.411,94.012 -60.644,94.056 -60.738,94.251C-59.734,94.2 -59.585,93.997 -58.782,93.561C-58.78,93.926 -58.645,94.418 -58.71,94.778L-58.236,95.223C-58.017,94.963 -57.821,95.049 -57.736,95.123C-57.725,95.306 -57.797,95.363 -57.83,95.528C-57.695,95.461 -57.601,95.452 -57.346,95.692C-57.09,95.931 -56.919,96.287 -57.133,96.571C-57.348,96.857 -57.889,96.945 -58.254,96.908C-58.033,97.19 -58.109,97.409 -58.166,97.499C-58.266,97.469 -58.384,97.484 -58.508,97.498C-58.699,97.521 -58.902,97.542 -59.057,97.397C-59.312,97.157 -59.516,96.379 -59.771,96.142C-59.921,96.002 -59.978,96.016 -60.035,96.029C-60.075,96.041 -60.114,96.051 -60.186,96.007C-60.173,96.711 -59.952,97.113 -59.898,97.382C-59.464,97.118 -58.736,97.988 -58.479,98.314C-57.933,97.865 -57.62,98.017 -57.207,97.819C-57.435,97.556 -57.262,97.142 -57.391,96.916C-57.301,96.956 -57.215,96.949 -57.128,96.941C-57,96.929 -56.869,96.918 -56.717,97.059C-56.421,97.336 -56.051,99.052 -56.125,99.277C-55.144,100.411 -54.448,102.158 -53.686,103.461C-53.451,103.633 -53.287,103.983 -53.031,104.224C-48.33,108.637 -40.274,109.837 -35.335,111.716C-34.6,111.764 -33.796,112.177 -33.048,112.169C-32.14,112.147 -32.179,111.089 -31.358,111.156C-30.654,111.205 -30.014,111.409 -29.439,111.663L-29.88,110.956C-32.733,110.284 -43.795,106.075 -44.817,105.114C-45.072,104.876 -44.998,104.972 -45.018,104.793C-44.946,104.703 -44.67,104.569 -44.624,104.482C-43.972,104.934 -43.389,105.091 -42.75,105.463L-42.149,104.662C-36.103,108.496 -29.492,108.396 -29.454,108.431C-29.199,108.672 -29.19,108.777 -29.225,108.937C-29.088,108.871 -28.985,108.869 -28.985,108.869C-29,109.024 -29.063,109.187 -28.945,109.294C-23.505,110.422 -16.214,107.948 -11.339,105.757C-11.43,106.006 -11.415,106.241 -11.35,106.517C-11.109,106.266 -10.828,106.234 -10.657,106.345C-10.564,105.749 -10.789,105.366 -10.653,104.956C-9.856,104.8 -8.985,103.801 -8.088,103.742C-8.094,103.902 -8.114,104.011 -8.114,104.011C-7.981,103.706 -8.001,103.046 -7.784,102.762C-7.013,101.732 -6.304,101.921 -5.205,101.633C-5.33,101.459 -5.467,101.526 -5.251,101.242C-5.038,100.953 -5.072,101.118 -4.928,101.157C-4.986,101.003 -5.038,100.953 -4.824,100.671C-4.61,100.382 -4.557,100.431 -4.412,100.47C-4.473,100.317 -4.564,100.327 -4.352,100.041C-4.138,99.754 -3.933,99.947 -3.747,99.664C-3.871,99.517 -3.496,99.479 -3.756,99.244L-4.038,98.981C-4.349,99.122 -4.522,99.35 -4.736,99.488C-4.718,99.334 -4.82,99.238 -4.843,99.06L-4.533,98.647C-4.398,98.662 -3.485,98.712 -3.153,99.022C-2.898,99.263 -3.035,99.328 -2.884,99.441L-2.481,98.902C-2.604,98.754 -2.657,98.709 -2.443,98.422C-2.227,98.137 -0.642,97.411 0.123,96.817C0.186,96.893 0.264,96.939 0.332,97.217C1.133,95.746 0.6,95.228 1.629,94.612C1.539,94.329 1.535,93.584 1.579,93.527C1.792,93.238 2.565,92.654 3.072,92.446C2.95,92.28 2.941,92.175 2.941,92.175C3.164,92.278 3.386,92.278 3.594,91.983L3.87,91.614C3.736,91.46 3.542,91.372 3.755,91.089C3.969,90.801 4.15,91.013 4.458,90.838C4.23,90.298 4.231,90.219 4.426,89.962C4.522,89.834 4.69,89.526 5.373,89.844L5.818,89.252C6.685,88.114 6.188,86.917 6.39,86.643C6.605,86.36 7.441,86.139 7.853,86.086C9.065,81.908 11.813,77.758 11.519,73.281C13.004,65.186 10.95,54.396 7.6,47.397L7.819,47.104C8.998,47.075 15.358,44.032 17.265,41.488L18.841,39.387C19.054,39.102 18.594,39.253 18.808,38.967C19.022,38.681 19.227,38.872 19.441,38.589C19.655,38.302 19.493,38.051 19.709,37.767C19.925,37.481 19.89,37.643 20.042,37.756C26.304,27.752 23.241,7.663 15.856,-0.022C15.723,0.118 15.526,0.032 15.441,-0.041C15.433,-0.224 15.503,-0.284 15.603,-0.452C13.214,-2.918 12.853,-3.256 12.352,-3.631C12.411,-3.478 12.19,-3.266 12.043,-3.237C11.731,-4.225 12.321,-4.344 11.579,-5.04C11.322,-5.278 10.81,-5.176 10.555,-5.416C10.299,-5.655 10.88,-5.501 10.625,-5.741C10.368,-5.979 9.959,-5.781 9.703,-6.022C9.448,-6.262 9.627,-6.383 9.73,-6.553L8.736,-7.484C8.605,-7.344 8.502,-7.342 8.502,-7.342C8.518,-7.494 8.685,-7.563 8.429,-7.802C8.3,-7.922 8.218,-7.901 8.137,-7.881C8.055,-7.858 7.974,-7.839 7.847,-7.959C7.592,-8.197 7.762,-8.426 7.648,-8.533C6.203,-8.981 4.751,-10.155 3.376,-10.929C1.128,-11.004 -0.635,-12.948 -2.391,-12.182C-2.273,-11.818 -2.449,-11.612 -2.411,-11.466C-2.639,-11.559 -4.764,-11.72 -4.931,-11.831C-7.306,-11.565 -2.91,-10.834 -4.203,-8.839L-7.569,-4.814C-7.923,-4.574 -8.281,-4.328 -8.701,-4.121L-17.627,7.78C-17.849,7.961 -18.183,7.939 -18.397,8.226C-18.612,8.512 -18.409,8.704 -18.621,8.989C-18.792,9.219 -19.585,9.754 -20.263,10.366L-27.812,20.432C-28.003,20.57 -28.448,21.103 -28.83,20.743C-29.086,20.504 -29.011,20.043 -28.963,19.758C-28.812,19.758 -28.664,19.828 -28.566,19.682C-28.701,19.127 -28.947,18.492 -29.259,18.048C-28.319,17.302 -28.21,15.855 -28.214,14.758C-28.544,14.291 -29.196,14.053 -29.007,13.176C-29.175,13.308 -29.302,13.509 -29.464,13.531C-29.644,13.353 -29.847,12.979 -29.965,12.711L-29.505,12.098L-28.758,12.801C-28.882,13.128 -28.633,13.319 -28.424,13.679C-28.409,13.181 -28.557,12.719 -28.406,12.507C-28.242,12.497 -28.105,12.462 -27.918,12.558C-28.359,11.451 -28.675,10.532 -28.538,9.144C-28.657,9.019 -28.925,8.993 -28.944,8.811C-28.088,7.679 -29.858,5.627 -29.527,5.185C-29.313,4.898 -29.4,4.982 -29.259,4.944C-29.251,5.317 -28.832,5.732 -28.535,6.166C-28.555,5.248 -28.81,4.414 -29.011,3.632C-29.164,3.771 -29.204,3.858 -29.438,3.904C-29.435,4.168 -29.42,4.378 -29.389,4.536C-29.861,4.613 -30.067,5.112 -30.398,5.251L-30.662,5.002C-30.709,4.319 -30.804,3.751 -30.326,3.2C-30.399,3.112 -30.523,3.122 -30.63,3.129C-30.707,3.137 -30.773,3.142 -30.808,3.116C-30.749,2.617 -31.02,1.833 -30.804,1.546C-30.651,1.344 -30.674,1.357 -30.647,1.37C-30.636,1.376 -30.617,1.382 -30.574,1.372C-30.474,1.744 -30.057,2.541 -30.158,3.294L-29.78,3.647C-29.66,3.261 -29.418,2.947 -29.23,2.664C-29.357,2.518 -29.358,2.403 -29.358,2.403C-29.221,2.421 -28.988,2.377 -28.887,2.206C-28.961,2.108 -28.927,-0.199 -29.363,-0.607C-29.618,-0.848 -29.839,-0.635 -29.979,-0.601C-29.988,-0.969 -29.835,-1.384 -29.814,-1.8C-30.017,-1.204 -30.548,-1.358 -30.694,-1.272C-30.618,-1.742 -30.361,-2.099 -30.415,-2.457C-30.184,-2.362 -29.954,-2.386 -29.642,-2.577C-29.766,-2.738 -30.051,-2.954 -30.017,-3.361C-30.184,-3.229 -30.362,-3.104 -30.618,-3.344C-31.461,-4.136 -31.264,-6.851 -31.4,-7.578C-31.554,-7.439 -31.657,-7.436 -31.657,-7.436C-31.657,-7.799 -31.62,-8.279 -31.433,-8.561C-32.075,-9.266 -32.053,-9.561 -31.752,-9.963C-31.408,-10.418 -31.825,-10.128 -31.387,-11.276C-31.562,-11.147 -31.5,-10.993 -31.758,-11.233C-32.012,-11.474 -31.632,-12.22 -31.447,-12.797C-31.544,-14.075 -33.16,-13.976 -33.149,-15.018C-32.252,-16.904 -33.552,-17.084 -32.597,-18.356C-32.382,-18.642 -32.136,-18.507 -32.037,-18.654C-32.173,-19.206 -32.014,-19.631 -32.085,-20.113C-32.509,-19.863 -32.769,-19.783 -33.024,-20.022L-34.431,-21.341C-34.684,-21.583 -34.773,-21.957 -34.559,-22.243C-34.344,-22.529 -33.876,-22.575 -33.617,-22.336C-33.364,-22.096 -33.417,-21.56 -33.143,-21.358C-33.084,-22.233 -33.505,-22.807 -33.088,-23.396C-33.182,-23.384 -33.306,-23.182 -33.456,-23.155C-34.317,-24.933 -34.177,-26.704 -34.439,-29.53C-34.684,-29.277 -34.972,-29.353 -35.073,-29.215C-35.042,-28.766 -35.137,-28.439 -35.352,-28.153C-35.373,-28.123 -35.597,-27.883 -36.091,-27.966C-36.252,-31.279 -35.328,-35.64 -36.094,-38.482C-36.245,-38.342 -36.284,-38.253 -36.444,-38.229L-36.71,-38.482C-36.67,-39.19 -36.533,-39.828 -36.442,-40.566C-39.347,-31.381 -41.194,-21.638 -41.053,-12.043ZM-65.902,70.679L-65.498,70.137C-65.348,70.251 -65.409,70.416 -65.413,70.581C-65.413,70.581 -65.256,70.541 -64.917,70.668C-65.016,70.854 -65.086,71.179 -65.302,71.434C-65.657,71.131 -65.775,70.823 -65.902,70.679ZM-59.312,86.709C-59.026,86.902 -58.701,87.219 -58.605,87.614C-58.891,87.419 -59.217,87.104 -59.312,86.709ZM-58.505,87.728C-58.07,87.636 -57.595,87.483 -57.077,87.566C-57.042,87.82 -57.432,87.912 -57.729,88.283L-58.505,87.728ZM-59.398,91.232C-59.564,91.075 -59.773,89.042 -59.692,88.856C-59.427,89.061 -59.136,89.139 -58.88,89.378C-58.625,89.618 -58.387,90.232 -58.057,90.571C-58.158,90.738 -58.236,90.957 -58.112,91.132C-58.436,91.229 -58.763,91.36 -59.032,91.36C-59.172,91.36 -59.297,91.326 -59.398,91.232ZM-58.727,93.398C-58.627,93.222 -58.393,93.176 -58.23,93.166C-58.164,93.07 -58.172,92.966 -58.301,92.819C-58.112,92.536 -57.821,92.614 -57.608,92.328C-57.393,92.042 -57.402,91.936 -57.52,91.749C-56.91,91.87 -56.277,92.943 -55.509,92.941C-55.602,93.137 -55.544,93.291 -55.758,93.577C-55.934,93.812 -56.283,93.897 -56.684,93.897C-57.481,93.897 -58.481,93.56 -58.727,93.398Z" clip-rule="nonzero"/>
                </clipPath>
                <g clip-path="url(#_clip1)">
                    <path d="M0,2.392C0.474,1.913 0.725,1.618 1.129,1.063C1.4,0.689 1.616,0.511 1.782,0.066C1.911,-0.277 1.869,-0.507 1.961,-0.865C2.135,-1.545 2.581,-1.819 2.614,-2.526C2.627,-2.812 2.782,-3.124 2.555,-3.257C2.36,-3.371 2.241,-3.053 2.02,-3.058C1.389,-3.073 3.057,-4.466 2.496,-4.785C2.077,-5.024 1.775,-4.065 1.367,-4.321C0.845,-4.645 2.002,-5.394 1.723,-5.983C1.601,-6.241 1.453,-6.332 1.247,-6.514C0.882,-6.837 0.236,-6.594 0.179,-7.112C0.14,-7.458 0.454,-7.573 0.535,-7.91C0.635,-8.336 0.797,-8.711 0.535,-9.04C0.339,-9.284 0.111,-9.361 -0.179,-9.305C-0.469,-9.249 -0.546,-8.987 -0.773,-8.774C-1.31,-8.266 -1.397,-7.581 -2.078,-7.377C-2.303,-7.312 -2.452,-7.23 -2.672,-7.312C-3.172,-7.497 -1.474,-7.966 -1.782,-8.441C-2.028,-8.82 -2.616,-8.121 -2.851,-8.508C-3.048,-8.832 -2.445,-9.278 -2.731,-9.504C-2.884,-9.625 -3.021,-9.554 -3.207,-9.571C-3.554,-9.603 -3.753,-9.603 -4.098,-9.571L-5.05,-8.84L-26.076,-3.257L-30.474,-28.314L-32.314,-37.486L-35.048,-41.208L-38.552,-42.205L-40.81,-37.353L-43.065,-19.608L-43.482,16.416L-43.958,30.905L-42.709,38.681L-41.225,43.533L-37.186,44.597L-29.166,41.606L-3.563,13.424L0.238,4.254L0,2.392Z" style="fill:rgb(253,198,2);"/>
                </g>
            </g>
        </g>
    </g>
</svg>
